<svg xmlns="http://www.w3.org/2000/svg"
 xmlns:xlink="http://www.w3.org/1999/xlink"
 width="30px" height="31px"  viewBox="0 0 30 31">
<path fill-rule="evenodd"  fill="#000000"
 d="M26.186249,12.312103 C26.186249,12.312103 26.186249,12.306488 26.186249,12.306488 C26.186249,12.306488 26.186249,12.306488 26.186249,12.306488 C26.186249,12.306488 14.995544,1.1060791 14.995544,1.1060791 C14.995544,1.1060791 1.0011749,15.096191 1.0011749,15.096191 C1.0011749,15.096191 2.974823,17.07573 2.974823,17.07573 C2.974823,17.07573 3.7994537,16.244629 3.7994537,16.244629 C3.7994537,21.889648 3.7994537,25.01387 3.7994537,29.10788 C9.3324585,29.10788 4.7800446,29.10788 13.5937195,29.10788 C13.5937195,27.081177 13.5937195,25.530457 13.5937195,23.507507 C13.5937195,23.507507 16.392227,23.507507 16.392227,23.507507 C16.392227,25.53421 16.392227,27.081482 16.392227,29.10788 C16.392227,29.10788 26.186249,29.10788 26.186249,29.10788 C26.186249,29.10788 26.186249,29.10257 26.186249,29.10257 C26.186249,25.009186 26.186249,21.919632 26.186249,16.27211 C26.186249,16.27211 27.00528,17.088852 27.00528,17.088852 C27.00528,17.088852 28.986359,15.109009 28.986359,15.109009 C28.986359,15.109009 26.186249,12.312103 26.186249,12.312103 ZM23.38797,26.30754 C23.38797,26.30754 19.190506,26.30754 19.190506,26.30754 C19.190506,26.30754 19.190506,20.707184 19.190506,20.707184 C11.9982605,20.707184 14.5104065,20.707184 10.795441,20.707184 C10.795441,20.707184 10.795441,26.30754 10.795441,26.30754 C10.795441,26.30754 6.5979614,26.30754 6.5979614,26.30754 C6.5979614,26.30754 6.5979614,13.444916 6.5979614,13.444916 C6.5979614,13.444916 14.979172,5.057968 14.979172,5.057968 C14.979172,5.057968 23.38797,13.472092 23.38797,13.472092 C23.38797,13.472092 23.38797,26.30754 23.38797,26.30754 Z"/>
</svg>