<svg xmlns="http://www.w3.org/2000/svg"
 xmlns:xlink="http://www.w3.org/1999/xlink"
 width="17px" height="17px"  viewBox="0 0 17 17">
<path fill-rule="evenodd"  fill="#5a6060"
 d="M4.633545,15.651041 C4.633545,15.651041 1.0065918,15.651041 1.0065918,15.651041 C1.0065918,15.651041 1.0065918,6.1294003 1.0065918,6.1294003 C1.0065918,6.1294003 4.633545,6.1294003 4.633545,6.1294003 C4.633545,6.1294003 4.633545,15.651041 4.633545,15.651041 ZM2.777832,4.6061745 C1.7995605,4.6061745 1.0065918,3.7994308 1.0065918,2.8043518 C1.0065918,1.8089619 1.7996826,1.0022182 2.777832,1.0022182 C3.7559814,1.0022182 4.5490723,1.8089619 4.5490723,2.8043518 C4.5490723,3.7994308 3.7561035,4.6061745 2.777832,4.6061745 ZM15.514648,15.651041 C15.514648,15.651041 12.613159,15.651041 12.613159,15.651041 C12.613159,15.651041 12.613159,11.930586 12.613159,10.524796 C12.613159,9.118694 11.998535,8.333813 10.896851,8.333813 C9.697876,8.333813 8.986084,9.151176 8.986084,10.524796 C8.986084,12.028658 8.986084,15.651041 8.986084,15.651041 C8.986084,15.651041 6.0844727,15.651041 6.0844727,15.651041 C6.0844727,15.651041 6.0844727,6.1294003 6.0844727,6.1294003 C6.0844727,6.1294003 8.986084,6.1294003 8.986084,6.1294003 C8.986084,6.1294003 8.986084,7.2003746 8.986084,7.2003746 C8.986084,7.2003746 9.896118,5.5871983 11.947998,5.5871983 C14.0,5.5871983 15.5147705,6.8518143 15.5147705,9.467253 C15.514648,12.083315 15.514648,15.651041 15.514648,15.651041 Z"/>
</svg>