<svg xmlns="http://www.w3.org/2000/svg"
 xmlns:xlink="http://www.w3.org/1999/xlink"
 width="31px" height="31px"  viewBox="0 0 31 31">
<path fill-rule="evenodd"  fill="#90a4ae"
 d="M13.108887,1.0562668 C6.926758,1.0562668 1.914917,6.0710144 1.914917,12.256676 C1.914917,18.44265 6.926758,23.457085 13.108887,23.457085 C19.29126,23.457085 24.3031,18.44265 24.3031,12.256676 C24.3031,6.0710144 19.29126,1.0562668 13.108887,1.0562668 ZM13.108887,20.657372 C8.479736,20.657372 4.713257,16.888817 4.713257,12.256676 C4.713257,7.6248474 8.479736,3.8566055 13.108887,3.8566055 C17.73816,3.8566055 21.504395,7.6248474 21.504395,12.256676 C21.504395,16.888817 17.73816,20.657372 13.108887,20.657372 ZM29.900024,27.07759 C29.900024,27.07759 27.921143,29.057442 27.921143,29.057442 C27.921143,29.057442 21.98462,23.117584 21.98462,23.117584 C21.98462,23.117584 23.963623,21.13742 23.963623,21.13742 C23.963623,21.13742 29.900024,27.07759 29.900024,27.07759 Z"/>
</svg>