<svg xmlns="http://www.w3.org/2000/svg"
 xmlns:xlink="http://www.w3.org/1999/xlink"
 width="18px" height="15px"  viewBox="0 0 18 15">
<path fill-rule="evenodd"  fill="#5a6060"
 d="M16.315308,3.9993954 C16.25061,5.406435 15.269287,7.332876 13.371582,9.779345 C11.40918,12.333565 9.748535,13.610676 8.390015,13.610676 C7.548828,13.610676 6.8374023,12.831417 6.255005,11.272898 C6.255005,11.272898 5.090454,6.9868164 5.090454,6.9868164 C4.6591797,5.427986 4.1955566,4.6487274 3.699463,4.6487274 C3.5917969,4.6487274 3.2143555,4.8761024 2.5672607,5.3305397 C2.5672607,5.3305397 1.8879395,4.4538345 1.8879395,4.4538345 C2.5997314,3.8260536 3.300537,3.1982727 3.9907227,2.5704937 C4.939575,1.7481327 5.651123,1.3149338 6.1256104,1.2718315 C7.2469482,1.163454 7.9370117,1.9320946 8.195923,3.5771275 C8.476196,5.3524017 8.670288,6.456482 8.778198,6.88937 C9.101685,8.361374 9.45752,9.097219 9.845581,9.097219 C10.147583,9.097219 10.600464,8.621231 11.204224,7.6686287 C11.808105,6.716028 12.131592,5.990801 12.174683,5.4929504 C12.260986,4.6702766 11.9375,4.2592525 11.204224,4.2592525 C10.859253,4.2592525 10.503296,4.334837 10.136719,4.4863167 C10.848511,2.1700897 12.207031,1.0444565 14.2126465,1.1094208 C15.700684,1.1528358 16.40149,2.1160564 16.315308,3.9993954 C16.315308,3.9993954 16.315308,3.9993954 16.315308,3.9993954 Z"/>
</svg>