<svg xmlns="http://www.w3.org/2000/svg"
 xmlns:xlink="http://www.w3.org/1999/xlink"
 width="22px" height="17px"  viewBox="0 0 22 17">
<path fill-rule="evenodd"  fill="#5a6060"
 d="M19.185059,3.1108208 C18.875854,2.6904278 18.349121,2.364357 17.787476,2.255354 C16.138916,1.9324074 5.852661,1.9324074 4.2042236,2.255354 C3.7546387,2.3421822 3.354248,2.5523796 3.010254,2.8787613 C1.5600586,4.2664375 2.0144043,11.707348 2.3640137,12.91231 C2.5114746,13.434835 2.701294,13.811192 2.9400635,14.05793 C3.2489014,14.384001 3.670166,14.608877 4.1550293,14.710072 C5.5131836,14.998976 12.506714,15.161385 17.758911,14.753798 C18.243408,14.666658 18.67163,14.434597 19.009155,14.09416 C20.349976,12.712107 20.258057,4.852989 19.185059,3.1108208 ZM9.196899,10.90435 C9.196899,9.171865 9.196899,7.431572 9.196899,5.699087 C10.989014,6.568609 12.376709,7.4087715 14.018799,8.314524 C12.664795,9.088787 10.989014,9.956747 9.196899,10.90435 Z"/>
</svg>